HIERARCHY
ROOT Hips
{
	OFFSET -3.958830 18.904000 13.208200
	CHANNELS 6 Xposition Yposition Zposition Zrotation Yrotation Xrotation 
	JOINT LHipJoint
	{
		OFFSET 0.000000 0.000000 0.000000
		CHANNELS 3 Zrotation Yrotation Xrotation
		JOINT LeftUpLeg
		{
			OFFSET 1.800000 -1.400000 0.085000
			CHANNELS 3 Zrotation Yrotation Xrotation
			JOINT LeftLeg
			{
				OFFSET 2.215000 -6.000000 0.000000
				CHANNELS 3 Zrotation Yrotation Xrotation
				JOINT LeftFoot
				{
					OFFSET 2.500000 -6.900000 0.000000
					CHANNELS 3 Zrotation Yrotation Xrotation
					JOINT LeftToeBase
					{
						OFFSET 0.200000 -0.500000 1.950000
						CHANNELS 3 Zrotation Yrotation Xrotation
						End Site
						{
							OFFSET 0.000000 0.000000 0.000000
						}
					}
				}
			}
		}
	}
	JOINT RHipJoint
	{
		OFFSET 0.000000 0.000000 0.000000
		CHANNELS 3 Zrotation Yrotation Xrotation
		JOINT RightUpLeg
		{
			OFFSET -1.800000 -1.400000 0.085000
			CHANNELS 3 Zrotation Yrotation Xrotation
			JOINT RightLeg
			{
				OFFSET -2.215000 -6.000000 0.000000
				CHANNELS 3 Zrotation Yrotation Xrotation
				JOINT RightFoot
				{
					OFFSET -2.500000 -6.900000 0.000000
					CHANNELS 3 Zrotation Yrotation Xrotation
					JOINT RightToeBase
					{
						OFFSET -0.200000 -0.500000 1.950000
						CHANNELS 3 Zrotation Yrotation Xrotation
						End Site
						{
							OFFSET 0.000000 0.000000 0.000000
						}
					}
				}
			}
		}
	}
	JOINT LowerBack
	{
		OFFSET 0.000000 0.000000 0.000000
		CHANNELS 3 Zrotation Yrotation Xrotation
		JOINT Spine
		{
			OFFSET -0.087000 1.940000 -0.288900
			CHANNELS 3 Zrotation Yrotation Xrotation
			JOINT Spine1
			{
				OFFSET 0.000000 1.950000 0.060000
				CHANNELS 3 Zrotation Yrotation Xrotation
				JOINT Neck
				{
					OFFSET 0.000000 0.000000 0.000000
					CHANNELS 3 Zrotation Yrotation Xrotation
					JOINT Neck1
					{
						OFFSET 0.000000 1.600000 0.340000
						CHANNELS 3 Zrotation Yrotation Xrotation
						JOINT Head
						{
							OFFSET 0.000000 1.667000 -0.240000
							CHANNELS 3 Zrotation Yrotation Xrotation
							End Site
							{
								OFFSET 0.000000 0.000000 0.000000
							}
						}
					}
				}
				JOINT LeftShoulder
				{
					OFFSET 0.000000 0.000000 0.000000
					CHANNELS 3 Zrotation Yrotation Xrotation
					JOINT LeftArm
					{
						OFFSET 2.700000 1.550000 -0.730000
						CHANNELS 3 Zrotation Yrotation Xrotation
						JOINT LeftForeArm
						{
							OFFSET 5.450000 0.000000 0.000000
							CHANNELS 3 Zrotation Yrotation Xrotation
							JOINT LeftHand
							{
								OFFSET 3.450000 0.000000 0.000000
								CHANNELS 3 Zrotation Yrotation Xrotation
								JOINT LeftHandIndex1
								{
									OFFSET 0.750000 0.000000 0.000000
									CHANNELS 3 Zrotation Yrotation Xrotation
									End Site
									{
										OFFSET 0.000000 0.000000 0.000000
									}
								}
							}
						}
					}
				}
				JOINT RightShoulder
				{
					OFFSET 0.000000 0.000000 0.000000
					CHANNELS 3 Zrotation Yrotation Xrotation
					JOINT RightArm
					{
						OFFSET -2.700000 1.550000 -0.730000
						CHANNELS 3 Zrotation Yrotation Xrotation
						JOINT RightForeArm
						{
							OFFSET -5.450000 0.000000 0.000000
							CHANNELS 3 Zrotation Yrotation Xrotation
							JOINT RightHand
							{
								OFFSET -3.450000 0.000000 0.000000
								CHANNELS 3 Zrotation Yrotation Xrotation
								JOINT RightHandIndex1
								{
									OFFSET -0.750000 0.000000 0.000000
									CHANNELS 3 Zrotation Yrotation Xrotation
									End Site
									{
										OFFSET 0.000000 0.000000 0.000000
									}
								}
							}
						}
					}
				}
			}
		}
	}
}
MOTION
Frames: 9
Frame Time: 0.016667
0.414660 19.159330 -0.817920 -4.139681 -36.738115 -1.026119 -15.063967 14.326367 2.212899 11.634249 0.489736 -4.531425 -1.711265 6.982240 21.656005 0.058765 5.073085 2.758078 0.151020 0.182470 0.060070 18.287519 -11.054071 2.612983 -4.758874 -1.545738 0.622537 7.310043 -7.156381 18.302159 -0.536832 -4.741084 2.755915 0.091820 0.154100 0.123420 -3.441316 -3.016537 -6.431436 7.761976 -1.563310 1.124313 -3.599141 -1.162986 14.563339 1.295148 -7.126422 -15.720269 -21.703174 15.451716 45.603223 -1.660770 11.099030 -1.167040 -23.070245 -25.495775 9.337410 -49.248036 -20.833059 7.946628 -8.071145 -15.273419 0.715636 -3.701318 3.011565 0.198940 0.092070 0.098680 0.101170 21.398166 29.584875 11.833838 51.050121 15.670819 1.692349 9.638311 19.083554 0.612351 2.454150 -1.250528 -0.053510 0.146900 0.024070 -0.010850 
0.489560 19.133350 -0.833710 -4.372006 -36.871543 -0.558647 -15.093363 14.252387 2.202721 11.246348 0.598005 -3.937215 -2.067032 6.938219 20.572099 0.048289 4.991309 2.785624 0.170200 0.204090 0.072810 18.295321 -10.988350 2.643431 -3.653046 -1.660426 1.400146 6.695132 -6.879812 17.721099 -0.563148 -4.698412 2.769510 0.103450 0.136080 0.117070 -3.442741 -2.977046 -6.357611 7.679248 -1.545421 0.632761 -3.663447 -1.212506 13.913258 1.281995 -7.282393 -14.937712 -22.473650 16.331195 46.879101 -1.299490 11.303770 -1.282170 -24.359893 -23.331373 8.736100 -50.516357 -19.025073 7.203144 -9.219365 -15.091281 0.750600 -3.689692 3.006377 0.219710 0.072600 0.115600 0.102680 22.653351 27.517499 11.133795 51.354224 14.789791 1.343553 11.885017 19.165897 0.929807 2.466889 -1.241255 -0.052950 0.151730 0.016230 -0.015810 
0.571280 19.090590 -0.858370 -4.632372 -36.954717 -0.045582 -15.104582 14.206842 2.199018 10.962100 0.616536 -3.846467 -2.349997 6.953298 20.202508 0.041038 4.948862 2.788853 0.201330 0.235500 0.099940 18.308040 -10.942389 2.668138 -2.637143 -1.709686 1.738013 6.091715 -6.658854 17.615764 -0.587215 -4.651370 2.776654 0.117380 0.105460 0.116050 -3.469470 -2.958311 -6.309561 7.815135 -1.626861 0.636659 -3.930126 -1.288357 13.109692 1.248760 -7.651980 -14.132401 -23.721745 17.185210 47.327190 -1.355280 11.488240 -1.911750 -25.480651 -20.947217 8.004263 -51.146541 -17.456447 6.209411 -10.308159 -15.939138 0.808609 -3.666820 3.011726 0.239390 0.047010 0.138440 0.101580 23.735022 25.334847 10.399219 51.360531 13.873324 0.810185 14.409233 19.863783 1.310526 2.476747 -1.244538 -0.042490 0.148640 0.002130 -0.022410 
0.667580 19.042900 -0.887310 -4.882036 -36.516239 0.137082 -15.100897 14.196763 2.196421 10.836329 0.584984 -4.143622 -2.430657 6.999064 20.555057 0.023637 4.941017 2.767845 0.235940 0.275450 0.129230 18.316501 -10.939050 2.683084 -1.934810 -1.678725 1.799068 5.945480 -6.746001 18.619796 -0.625575 -4.690392 2.751136 0.135820 0.068570 0.113440 -3.485551 -2.930708 -6.307070 7.906231 -1.715013 1.164577 -3.989692 -1.365481 12.465089 1.217683 -7.710618 -13.505364 -24.452667 17.897610 48.901822 -1.354000 11.562190 -2.744740 -26.531576 -19.239944 7.360311 -51.065627 -16.505827 5.506258 -11.832606 -16.514203 0.975286 -3.641875 3.004546 0.269310 0.017250 0.170830 0.099260 24.757818 23.618594 9.708891 50.819223 13.387373 0.600984 16.163446 19.679133 1.589600 2.486258 -1.231020 -0.033160 0.152080 -0.011050 -0.031350 
0.760550 18.988780 -0.927520 -4.920470 -36.164923 0.178350 -15.090983 14.204274 2.204577 10.797371 0.491617 -4.894553 -2.626803 7.202357 21.718970 0.021230 5.012327 2.713834 0.268480 0.312600 0.150880 18.318350 -10.961223 2.681635 -1.677534 -1.579376 1.587178 5.988219 -6.926985 19.904162 -0.658299 -4.749316 2.715778 0.151460 0.039160 0.112450 -3.487246 -2.906605 -6.327850 7.667780 -1.772991 1.960505 -4.280905 -1.283573 11.897974 1.182150 -7.720034 -13.067562 -25.067913 18.599973 50.366858 -0.762830 11.331170 -3.321490 -27.000253 -17.787590 6.847363 -51.146720 -15.643479 4.560929 -12.481257 -17.751762 1.033534 -3.612330 3.007745 0.293800 -0.012240 0.198200 0.098120 25.221677 22.189781 9.143127 50.779966 12.935879 0.221022 18.323534 20.218294 1.946119 2.493155 -1.231748 -0.020460 0.153250 -0.021790 -0.034090 
0.855320 18.925180 -0.975650 -4.901988 -35.391248 0.216614 -15.080136 14.223769 2.228650 10.653494 0.299494 -6.350297 -2.732825 7.460599 23.564401 0.012722 5.148199 2.649044 0.272950 0.316180 0.150560 18.311739 -10.988643 2.685502 -1.432541 -1.350869 1.004812 6.401673 -7.310802 21.880029 -0.679259 -4.881996 2.666495 0.159340 0.043070 0.103520 -3.458101 -2.896859 -6.402153 7.253413 -1.870278 3.212557 -4.342933 -1.225772 11.096597 1.123384 -7.782569 -12.455138 -25.363018 18.776789 51.180067 -0.578730 10.870050 -3.442500 -27.761880 -16.303403 6.182037 -50.978337 -14.904635 3.706199 -13.715426 -18.751073 1.195093 -3.611145 2.995500 0.304800 -0.018060 0.197950 0.099920 26.030748 20.831616 8.481317 50.049928 12.742894 0.040957 20.319207 20.363150 2.284856 2.493610 -1.227929 -0.029740 0.173060 -0.017580 -0.035250 
0.945730 18.861290 -1.013420 -4.853893 -34.087975 -0.004489 -15.058246 14.186856 2.273674 10.905439 0.031516 -7.919864 -3.290867 7.967809 25.778665 0.024095 5.396565 2.528601 0.298210 0.339220 0.173210 18.316879 -11.016195 2.688504 -1.705951 -1.139513 0.757243 7.798206 -8.194295 24.210549 -0.748902 -5.180505 2.552595 0.172520 0.016800 0.100650 -3.484971 -2.815052 -6.504738 7.092801 -1.924024 4.503659 -4.698953 -1.133707 10.498633 1.135819 -7.618397 -11.982412 -25.213089 18.742256 52.924068 -0.538760 10.399530 -3.907170 -28.417194 -15.216461 5.630225 -50.150324 -14.317346 2.901373 -15.618893 -19.891296 1.535609 -3.588765 2.998285 0.328330 -0.039540 0.217270 0.097520 26.569421 19.702150 7.894391 50.154121 12.744006 -0.131667 20.505223 20.226037 2.303092 2.497121 -1.216270 -0.026110 0.176460 -0.026280 -0.044210 
1.038630 18.798950 -1.052160 -4.874617 -32.928640 -0.199164 -15.044521 14.130010 2.377703 11.257036 -0.294302 -9.650271 -4.343719 8.763586 28.203145 0.060281 5.777458 2.362076 0.310510 0.348010 0.188480 18.315345 -11.006249 2.687225 -1.970620 -0.793821 0.366764 9.052464 -9.145762 26.941070 -0.824905 -5.524425 2.420521 0.179980 -0.002380 0.090310 -3.494089 -2.784799 -6.664210 7.070285 -1.908818 6.142222 -4.582261 -0.983946 9.690614 1.023951 -7.685011 -11.720189 -26.014208 19.135797 54.347011 -0.405700 9.926610 -4.224810 -29.476022 -14.308457 5.158842 -49.407133 -13.547981 1.994263 -17.419053 -21.252925 1.886492 -3.566132 2.996667 0.351350 -0.062670 0.230220 0.088660 27.806052 18.897519 7.521730 49.249823 12.277832 -0.708780 20.103837 20.430364 2.260171 2.493350 -1.194197 -0.029530 0.188660 -0.024480 -0.052390 
1.124080 18.738750 -1.095370 -4.680402 -32.015830 -0.502247 -15.039571 14.036581 2.519700 11.349502 -0.743953 -11.382932 -5.311079 9.641397 31.005498 0.103127 6.259806 2.166877 0.311180 0.331800 0.205800 18.304580 -11.007660 2.678004 -2.595402 -0.374375 -0.170643 10.277639 -10.205632 29.685125 -0.902652 -5.910010 2.276485 0.178170 -0.016320 0.080740 -3.475771 -2.691008 -6.850534 6.667944 -1.631292 7.890453 -4.656134 -0.512632 8.886275 1.084197 -7.500434 -11.343634 -25.771990 18.881524 56.046592 -0.390870 9.280520 -4.553780 -30.226667 -13.171743 4.543952 -48.492119 -12.683334 0.907247 -19.103429 -22.904253 2.278627 -3.554987 2.980920 0.385540 -0.080460 0.236010 0.072150 28.379578 17.848145 7.153684 48.701830 11.440821 -1.515151 21.564502 21.282569 2.534773 2.480554 -1.183058 -0.046410 0.203670 -0.012860 -0.071650 
